<?xml version="1.0" encoding="UTF-8"?>
<svg id="Layer_1" xmlns="http://www.w3.org/2000/svg" version="1.1" viewBox="0 0 431.58 400">
  <!-- Generator: Adobe Illustrator 30.6.0, SVG Export Plug-In . SVG Version: 2.1.4 Build 109)  -->
  <defs>
    <style>
      .st0 {
        fill: #ce0e2d;
      }

      .st1 {
        fill: #fff;
      }

      .st2 {
        fill: #061922;
      }

      .st3 {
        fill: #ffd520;
      }
    </style>
  </defs>
  <path class="st2" d="M5.33,64.25l172.18,313.17c7.66,13.93,22.33,22.58,38.29,22.58s30.63-8.65,38.29-22.58L426.25,64.25c7.36-13.38,7.07-29.85-.75-42.97-7.82-13.12-22.2-21.27-37.54-21.27H43.61C28.27,0,13.9,8.16,6.07,21.27c-7.82,13.12-8.11,29.59-.75,42.97h0ZM12.67,25.17C19.11,14.35,30.97,7.63,43.61,7.63h344.34c12.64,0,24.5,6.72,30.95,17.54,6.45,10.82,6.68,24.4.61,35.43l-172.18,313.17c-6.32,11.49-18.41,18.62-31.57,18.62s-25.25-7.13-31.57-18.62L12.05,60.6c-6.07-11.03-5.83-24.61.62-35.43h0Z"/>
  <path class="st0" d="M12.05,60.6l172.17,313.17c6.32,11.49,18.41,18.62,31.57,18.62s25.25-7.13,31.57-18.62L419.53,60.6c6.07-11.03,5.83-24.61-.61-35.43-6.45-10.82-18.3-17.54-30.95-17.54H43.62c-12.64,0-24.5,6.72-30.94,17.54-6.45,10.82-6.68,24.4-.62,35.43ZM25.29,32.61c3.81-6.4,10.83-10.38,18.32-10.38h344.34c7.48,0,14.51,3.98,18.32,10.38,3.81,6.4,3.96,14.44.37,20.98l-172.18,313.17c-3.74,6.8-10.89,11.02-18.69,11.02s-14.95-4.23-18.69-11.02L24.93,53.59c-3.59-6.53-3.45-14.57.37-20.98h0Z"/>
  <path class="st3" d="M24.93,53.59l172.18,313.17c3.74,6.8,10.89,11.02,18.69,11.02s14.95-4.23,18.69-11.02L406.65,53.59c3.59-6.53,3.45-14.57-.37-20.98-3.81-6.4-10.83-10.38-18.32-10.38H43.62c-7.48,0-14.51,3.98-18.32,10.38-3.81,6.4-3.96,14.44-.37,20.98ZM32.98,37.14c2.22-3.72,6.29-6.03,10.63-6.03h344.34c4.35,0,8.42,2.31,10.63,6.03,2.22,3.72,2.3,8.39.21,12.17l-172.17,313.17c-2.17,3.94-6.32,6.4-10.85,6.4s-8.68-2.45-10.85-6.4L32.77,49.33c-2.08-3.79-2-8.46.21-12.17h0Z"/>
  <path class="st0" d="M32.98,37.14c2.22-3.72,6.29-6.03,10.63-6.03h344.34c4.35,0,8.42,2.31,10.63,6.03,2.22,3.72,2.3,8.39.21,12.17l-172.17,313.17c-2.17,3.94-6.32,6.4-10.85,6.4s-8.68-2.45-10.85-6.4L32.77,49.33c-2.08-3.79-2-8.46.21-12.17h0Z"/>
  <path class="st3" d="M109.53,66.04c.6-5.67,4.64-10.32,9.99-11.87-5.36-1.54-9.39-6.19-9.99-11.87-.6,5.67-4.64,10.32-9.99,11.87,5.36,1.54,9.39,6.19,9.99,11.87ZM332.04,54.17c-5.36-1.54-9.39-6.19-9.99-11.87-.6,5.67-4.64,10.32-9.99,11.87,5.36,1.54,9.39,6.19,9.99,11.87.6-5.67,4.64-10.32,9.99-11.87Z"/>
  <path class="st1" d="M181.52,81.45h13.64l3.17-6.45h-17.03c-9.49,0-13.59,3.16-13.59,10.76v20.88c0,7.54,4.11,10.76,13.59,10.76h17.03l-3.17-6.45h-13.64c-2.99,0-4.11-.97-4.11-3.47v-22.64c0-2.49,1.12-3.41,4.11-3.41ZM205.26,75.01h7.87v42.4h-7.87c-.91,0-1.63-.69-1.63-1.54v-39.34c0-.85.73-1.54,1.63-1.54h0ZM225.18,95.3l14.95-20.28h-10.35l-15.07,20.75,13.97,19.58c.91,1.29,2.46,2.06,4.11,2.06h8.32l-15.91-22.12h0ZM272.8,110.99h-16.15c-1.75,0-3.18-1.33-3.18-2.98v-9.24h13.23l3.03-6.17h-16.27v-8.21c0-1.65,1.42-2.98,3.18-2.98h15.49l3.15-6.41h-20.84c-5.8,0-10.5,4.4-10.5,9.83v22.74c0,5.43,4.71,9.83,10.5,9.83h21.49l-3.15-6.41ZM161.77,85.17v22.01c0,7.56-4.01,10.76-13.52,10.76h-6.02c-9.43,0-13.52-3.21-13.52-10.76v-22.01c0-7.5,4.08-10.71,13.52-10.71h6.02c9.51,0,13.52,3.21,13.52,10.71ZM152.19,84.32c0-2.48-1.12-3.45-4.16-3.45h-5.57c-2.97,0-4.09.97-4.09,3.45v23.77c0,2.48,1.12,3.38,4.09,3.38h5.57c3.05,0,4.16-.91,4.16-3.38v-23.77ZM324.3,81.42h14.33l3.15-6.4h-19.96c-6.2,0-11.22,4.7-11.22,10.5v3.23c0,4.87,3.6,9.11,8.67,10.22l9.77,2.13c1.89.41,3.23,1.99,3.23,3.81v2.21c0,2.16-1.87,3.91-4.18,3.91h-14.24l-3.24,6.41h19.95c6.2,0,11.22-4.7,11.22-10.5v-3.03c0-4.88-3.6-9.11-8.67-10.22l-9.77-2.13c-1.89-.41-3.23-1.99-3.23-3.81v-2.39c0-2.16,1.87-3.91,4.18-3.91h0ZM304.02,110.98h4.33l-3.24,6.4h-1.81c-14.48,0-15.81-1.71-15.81-12.97v-22.98h-9.91l3.15-6.41h6.76v-4.55h9.52v4.55h9.76v6.41h-9.76v23.76c0,5.12.72,5.79,7.01,5.79ZM124.8,117.39h-7.59c-1.82,0-3.48-.93-4.35-2.43l-11.14-19.31,8.77-2.01c1.43-.33,2.43-1.53,2.43-2.91v-5.94c0-2.48-1.12-3.38-4.16-3.38h-9.45v35.99h-7.87c-.91,0-1.63-.69-1.63-1.54v-39.34c0-.85.73-1.54,1.63-1.54h17.55c9.51,0,13.52,3.03,13.52,10.22v6.12c0,3.35-2.4,6.3-5.86,7.19l-2.79.72,10.95,18.15ZM200.85,42.97h-4.28v17.93c0,1.34-.61,1.83-2.21,1.83h-2.29c-1.65,0-2.26-.49-2.26-1.83v-17.93h-4.24c-.53,0-.95.4-.95.89v16.55c0,4.09,2.17,5.83,7.32,5.83h2.53c5.15,0,7.32-1.74,7.32-5.83v-16.55c0-.49-.43-.89-.95-.89h0ZM152.2,43.85v21.2c0,.49-.43.89-.94.89h-4.2v-10.76l-6.68,1.53v9.23h-4.2c-.52,0-.94-.39-.94-.89v-21.2c0-.49.43-.89.94-.89h4.2v10.24l6.68-1.53v-8.71h4.2c.52,0,.94.4.94.89ZM177.43,48.47v11.93c0,4.09-2.17,5.83-7.33,5.83h-3.26c-5.11,0-7.33-1.74-7.33-5.83v-11.93c0-4.06,2.21-5.8,7.33-5.8h3.26c5.15,0,7.33,1.74,7.33,5.8ZM172.24,48.01c0-1.34-.61-1.87-2.26-1.87h-3.02c-1.61,0-2.22.52-2.22,1.87v12.88c0,1.34.61,1.83,2.22,1.83h3.02c1.65,0,2.26-.49,2.26-1.83v-12.88ZM271.26,48.47v11.93c0,4.09-2.17,5.83-7.33,5.83h-3.26c-5.11,0-7.33-1.74-7.33-5.83v-11.93c0-4.06,2.21-5.8,7.33-5.8h3.26c5.15,0,7.33,1.74,7.33,5.8ZM266.07,48.01c0-1.34-.61-1.87-2.26-1.87h-3.02c-1.61,0-2.22.52-2.22,1.87v12.88c0,1.34.61,1.83,2.22,1.83h3.02c1.65,0,2.26-.49,2.26-1.83v-12.88ZM245,62.45h2.34l-1.76,3.47h-.98c-7.84,0-8.56-.92-8.56-7.03v-12.46h-5.37l1.71-3.47h3.66v-2.47h5.16v2.47h5.29v3.47h-5.29v12.87c0,2.77.39,3.14,3.8,3.14h0ZM216.18,46.43h7.77l1.71-3.47h-10.81c-3.36,0-6.08,2.55-6.08,5.69v1.75c0,2.65,1.95,4.93,4.7,5.54l5.29,1.15c1.03.22,1.75,1.08,1.75,2.07v1.19c0,1.17-1.01,2.12-2.26,2.12h-7.72l-1.76,3.47h10.81c3.36,0,6.08-2.55,6.08-5.69v-1.65c0-2.65-1.95-4.93-4.7-5.54l-5.29-1.16c-1.03-.22-1.75-1.08-1.75-2.06v-1.3c0-1.17,1.01-2.12,2.26-2.12h0ZM216.18,46.43h7.77l1.71-3.47h-10.81c-3.36,0-6.08,2.54-6.08,5.69v1.75c0,2.65,1.95,4.93,4.7,5.54l5.29,1.15c1.03.22,1.75,1.08,1.75,2.07v1.19c0,1.17-1.01,2.12-2.26,2.12h-7.72l-1.76,3.47h10.81c3.36,0,6.08-2.55,6.08-5.69v-1.65c0-2.65-1.95-4.93-4.7-5.54l-5.29-1.16c-1.03-.22-1.75-1.08-1.75-2.06v-1.3c0-1.17,1.01-2.12,2.26-2.12h0ZM296.35,43.85v20.32c0,.98-.85,1.77-1.89,1.77h-3.17c-1.28,0-2.38-.73-2.83-1.92l-6.11-16.24v18.16h-3.89c-.53,0-.95-.39-.95-.89v-20.32c0-.98.85-1.77,1.89-1.77h3.47c1.28,0,2.39.75,2.83,1.92l5.82,15.46v-17.38h3.89c.52,0,.95.4.95.89h0Z"/>
  <path class="st3" d="M240.97,214.27l.21-17.32c-.02-8.13-8.51-9.49-14.78-9.39,4.2-1.39,9.27-3.75,12.93-7.69,3.84-3.53,6.59-8.51,6.11-15.48-.8-11.75-15.56-17.6-40.04-15.24-.4.04-.8.08-1.2.12-1.15-8.68-2.94-17.09-5.66-24.85l-1.21,1.2c-3.25,10.04-5.2,18.05-6.33,25.47-14.61,2.51-24.84,5.84-24.84,5.84l-1.21,1.2s11.81-1.07,25.27-.88c-1.5,15.23.03,29.69-.02,57.01-21.75-.61-40.83,2.98-45.49,8.77-1.54,1.26-2.35,2.64-2.3,4.12.23,6.62,20.01,12.7,47.8,15.03l1.18,37.55,1.21-1.2,1.96-25.46c0-.42.06-.77.13-1.07.58.08,1.14.82,1.14,2.12l.86,33.54,1.21-1.2,2.07-27.3c0-.61.06-1.11.18-1.51.58.1,1.13.96,1.09,2.5l.96,34.97,1.21-1.2,1.66-50.89c3.19.1,6.45.16,9.77.16,3.51,0,6.97-.06,10.36-.17l1.68,53.05,1.21-1.2,1.43-27.77c0-.56.07-1.02.17-1.39.55.13,1.05.94,1.05,2.37l1.44,38.94,1.21-1.2,1.46-33.64c.01-.48.09-.89.19-1.22.7,0,1.4.82,1.43,2.42l1.2,44.59,1.21-1.2,1.76-74.66c23.75-2.07,41.79-6.83,46.25-12.31,1.48-1.24,2.28-2.53,2.28-3.83-.34-7.27-22.31-12.89-48.18-11.67h0ZM189.97,234.29c-19.04-1.83-31.9-5.67-31.9-10.53,0-.35.11-.69.3-1.02,4.46-3.12,18.14-5.09,31.83-7.13-.02,5.34-.24,18.69-.24,18.69h0ZM228.76,169.08c.73,5.36-.82,9.41-3.6,12.46-4.97,4.48-12.76,6.52-19.09,7.45.11-10.11-.04-20.61-.92-30.91,12.22,1.3,22.71,4.37,23.61,11ZM225.2,235.31c-2.98.09-6.04.13-9.16.13-3.67,0-7.25-.06-10.72-.19l.14-4.32c-.33-10.94.36-24.65.58-39.3,8.92,1.03,19.67,3.55,19.48,9.79l-.32,33.87ZM272.54,226.87c-4.44,3.48-16.23,6.17-31.81,7.54l.22-18.63c17.82,2.31,32.29,4.91,32.29,9.16,0,.66-.24,1.3-.7,1.92h0Z"/>
  <path class="st1" d="M289.16,225.95c-.17-7.28-22.31-12.89-48.18-11.67l.21-17.32c-.03-10.72-14.78-9.68-19.76-9.02,5.81-1.04,25.21-5.87,24.01-23.55-.8-11.75-15.56-17.6-40.04-15.24-.4.04-.8.08-1.2.12-1.15-8.68-2.94-17.09-5.66-24.85-3.4,10.5-5.38,18.78-6.49,26.49-15.17,2.52-25.89,6.02-25.89,6.02,0,0,11.81-1.07,25.27-.88-1.52,15.45.07,30.12-.02,58.25-25.73-.9-48.06,4.09-47.79,11.64.23,6.62,20.01,12.71,47.8,15.04l1.18,37.55,1.96-25.46c.06-3.16,2.48-2.87,2.48-.16l.86,33.54,2.08-27.3c-.03-3.68,2.55-3.51,2.47-.21l.96,34.97,1.69-52.12c3.57.13,7.21.19,10.94.19,3.51,0,6.97-.06,10.36-.17l1.68,53.05,1.43-27.77c.02-3.54,2.43-3.35,2.42-.22l1.44,38.94,1.46-33.64c.11-3.3,2.76-3.16,2.82,0l1.21,44.59,1.78-75.76c28.1-2.32,48.66-8.41,48.51-15.04h0ZM229.96,167.88c1.99,14.69-13.07,19.52-23.89,21.11.11-10.55-.05-21.52-1.03-32.25,12.78,1.22,24,4.26,24.93,11.14ZM158.07,223.76c0-4.49,16.66-6.86,33.34-9.35-.01,5.34-.1,11.16-.27,17.56l.07,2.44c-19.72-1.77-33.15-5.68-33.15-10.65ZM205.31,235.26l.14-4.32c-.34-11.26.4-25.48.6-40.63,9.11.93,20.86,3.4,20.66,9.92l-.33,35.03c-3.36.11-6.81.17-10.35.17s-7.25-.06-10.72-.19h0ZM240.74,234.42l.24-19.99c18.36,2.36,33.48,4.97,33.48,9.32,0,4.98-13.76,8.9-33.72,10.67h0Z"/>
</svg>